<?xml version="1.0" encoding="UTF-8" standalone="no"?>
<svg
   width="600"
   height="71.653839"
   viewBox="0 0 600.00003 71.653839"
   version="1.1"
   id="svg95"
   sodipodi:docname="nvim-nix.svg"
   inkscape:version="1.2.2 (b0a8486541, 2022-12-01)"
   xmlns:inkscape="http://www.inkscape.org/namespaces/inkscape"
   xmlns:sodipodi="http://sodipodi.sourceforge.net/DTD/sodipodi-0.dtd"
   xmlns:xlink="http://www.w3.org/1999/xlink"
   xmlns="http://www.w3.org/2000/svg"
   xmlns:svg="http://www.w3.org/2000/svg"
   xmlns:rdf="http://www.w3.org/1999/02/22-rdf-syntax-ns#"
   xmlns:cc="http://creativecommons.org/ns#"
   xmlns:dc="http://purl.org/dc/elements/1.1/">
  <sodipodi:namedview
     id="namedview97"
     pagecolor="#505050"
     bordercolor="#ffffff"
     borderopacity="1"
     inkscape:showpageshadow="0"
     inkscape:pageopacity="0"
     inkscape:pagecheckerboard="1"
     inkscape:deskcolor="#505050"
     showgrid="false"
     inkscape:zoom="3.7301328"
     inkscape:cx="323.71502"
     inkscape:cy="-34.583219"
     inkscape:window-width="3580"
     inkscape:window-height="1508"
     inkscape:window-x="0"
     inkscape:window-y="0"
     inkscape:window-maximized="1"
     inkscape:current-layer="g8863" />
  <title
     id="title70">neovim-mark@2x</title>
  <description>Created with Sketch (http://www.bohemiancoding.com/sketch)</description>
  <defs
     id="defs87">
    <linearGradient
       inkscape:collect="always"
       id="linearGradient1782">
      <stop
         style="stop-color:#159ce0;stop-opacity:0.80000001;"
         offset="0"
         id="stop1778" />
      <stop
         style="stop-color:#105db5;stop-opacity:0.83529413;"
         offset="1"
         id="stop1780" />
    </linearGradient>
    <linearGradient
       inkscape:collect="always"
       id="linearGradient1774">
      <stop
         style="stop-color:#7bb442;stop-opacity:0.80000001;"
         offset="0"
         id="stop1770" />
      <stop
         style="stop-color:#459440;stop-opacity:0.8392157;"
         offset="1"
         id="stop1772" />
    </linearGradient>
    <linearGradient
       x1="167.95833"
       y1="-0.46142399"
       x2="167.95833"
       y2="335.45523"
       id="linearGradient-1"
       gradientTransform="scale(0.46142398,2.1672042)"
       gradientUnits="userSpaceOnUse">
      <stop
         stop-color="#16B0ED"
         stop-opacity="0.800235524"
         offset="0%"
         id="stop72" />
      <stop
         stop-color="#0F59B2"
         stop-opacity="0.83700023"
         offset="100%"
         id="stop74" />
    </linearGradient>
    <linearGradient
       x1="1118.3427"
       y1="-0.46586797"
       x2="1118.3427"
       y2="338.68604"
       id="linearGradient-2"
       gradientTransform="scale(0.46586797,2.1465309)"
       gradientUnits="userSpaceOnUse">
      <stop
         stop-color="#7DB643"
         offset="0%"
         id="stop77" />
      <stop
         stop-color="#367533"
         offset="100%"
         id="stop79" />
    </linearGradient>
    <linearGradient
       x1="356.33795"
       y1="0"
       x2="356.33795"
       y2="612.90131"
       id="linearGradient-3"
       gradientTransform="scale(0.84189739,1.1877932)"
       gradientUnits="userSpaceOnUse">
      <stop
         stop-color="#88C649"
         stop-opacity="0.8"
         offset="0%"
         id="stop82" />
      <stop
         stop-color="#439240"
         stop-opacity="0.84"
         offset="100%"
         id="stop84" />
    </linearGradient>
    <linearGradient
       x1="49.021549"
       y1="-0.079835393"
       x2="49.021549"
       y2="97.845657"
       id="linearGradient-1-2"
       gradientTransform="scale(0.46153975,2.1666606)"
       gradientUnits="userSpaceOnUse">
      <stop
         stop-color="#16B0ED"
         stop-opacity="0.800235524"
         offset="0%"
         id="stop5136" />
      <stop
         stop-color="#0F59B2"
         stop-opacity="0.83700023"
         offset="100%"
         id="stop5138" />
    </linearGradient>
    <linearGradient
       x1="326.17365"
       y1="-0.069164939"
       x2="326.17365"
       y2="98.851547"
       id="linearGradient-2-2"
       gradientTransform="scale(0.46628455,2.1446132)"
       gradientUnits="userSpaceOnUse">
      <stop
         stop-color="#7DB643"
         offset="0%"
         id="stop5141" />
      <stop
         stop-color="#367533"
         offset="100%"
         id="stop5143" />
    </linearGradient>
    <linearGradient
       x1="103.88479"
       y1="-0.11508822"
       x2="103.88479"
       y2="178.55785"
       id="linearGradient-3-8"
       gradientTransform="scale(0.84203823,1.1875945)"
       gradientUnits="userSpaceOnUse">
      <stop
         stop-color="#88C649"
         stop-opacity="0.8"
         offset="0%"
         id="stop5146" />
      <stop
         stop-color="#439240"
         stop-opacity="0.84"
         offset="100%"
         id="stop5148" />
    </linearGradient>
    <linearGradient
       inkscape:collect="always"
       xlink:href="#linearGradient1774"
       id="linearGradient1776"
       x1="52.443624"
       y1="-87.210322"
       x2="119.70557"
       y2="-87.210322"
       gradientUnits="userSpaceOnUse"
       gradientTransform="matrix(0.66190409,0,0,0.66190409,-85.433543,-23.706043)" />
    <linearGradient
       inkscape:collect="always"
       xlink:href="#linearGradient1782"
       id="linearGradient1784"
       x1="44.901705"
       y1="-87.250641"
       x2="112.14013"
       y2="-87.250641"
       gradientUnits="userSpaceOnUse"
       gradientTransform="matrix(0.66190409,0,0,0.66190409,-85.433543,-23.706043)" />
  </defs>
  <metadata
     id="metadata14713">
    <rdf:RDF>
      <cc:Work
         rdf:about="">
        <dc:title>neovim-mark@2x</dc:title>
      </cc:Work>
    </rdf:RDF>
  </metadata>
  <g
     aria-label="haskell-tools.nvim"
     id="text4483"
     style="font-weight:bold;font-size:33.4748px;font-family:Lato;-inkscape-font-specification:'Lato Bold';fill:#1a1a1a;stroke-width:1.39478"
     transform="translate(307.65719,89.970579)">
    <g
       id="g5925"
       transform="matrix(1.6576683,0,0,1.6576683,-217.36825,0)">
      <g
         id="g8863"
         transform="matrix(0.81614217,0,0,0.81614217,-10.014267,-7.820178)">
        <g
           aria-label="kickstart-nix.nvim"
           id="text1840"
           style="font-size:47.306px;font-family:Roboto;-inkscape-font-specification:Roboto;fill:#444444;stroke-width:1.03096"
           transform="translate(2.5202188,76.281885)">
          <path
             d="m 33.747205,-123.78629 v 20.98021 h 1.088038 q 0.331142,0 0.614978,-0.0946 0.307489,-0.0946 0.662284,-0.44941 l 9.437547,-8.96449 q 0.23653,-0.28383 0.520366,-0.42575 0.283836,-0.16557 0.70959,-0.16557 h 1.986852 l -10.383667,9.8633 q -0.425754,0.49671 -0.922467,0.78055 0.378448,0.18922 0.638631,0.4494 0.283836,0.23653 0.544019,0.56768 l 10.904033,11.873802 H 47.58421 q -0.331142,0 -0.614978,-0.09461 -0.260183,-0.118265 -0.496713,-0.449407 l -9.886954,-10.596545 q -0.189224,-0.21288 -0.378448,-0.3548 -0.165571,-0.14191 -0.354795,-0.21287 -0.189224,-0.0946 -0.449407,-0.11827 -0.23653,-0.0473 -0.591325,-0.0473 h -1.064385 v 11.873804 h -2.270688 v -34.415114 z"
             style="font-weight:300;font-family:Lato;-inkscape-font-specification:'Lato Light'"
             id="path2262" />
          <path
             d="m 56.501384,-112.90591 v 23.534732 h -2.247035 v -23.534732 z m 0.969773,-8.11298 q 0,0.42575 -0.189224,0.8042 -0.165571,0.3548 -0.449407,0.63863 -0.283836,0.28384 -0.662284,0.44941 -0.378448,0.16557 -0.804202,0.16557 -0.425754,0 -0.804202,-0.16557 -0.378448,-0.16557 -0.662284,-0.44941 -0.283836,-0.28383 -0.449407,-0.63863 -0.165571,-0.37845 -0.165571,-0.8042 0,-0.42576 0.165571,-0.8042 0.165571,-0.4021 0.449407,-0.68594 0.283836,-0.28384 0.662284,-0.44941 0.378448,-0.16557 0.804202,-0.16557 0.425754,0 0.804202,0.16557 0.378448,0.16557 0.662284,0.44941 0.283836,0.28384 0.449407,0.68594 0.189224,0.37844 0.189224,0.8042 z"
             style="font-weight:300;font-family:Lato;-inkscape-font-specification:'Lato Light'"
             id="path2264" />
          <path
             d="m 80.343603,-109.76006 q -0.118265,0.11826 -0.23653,0.21287 -0.09461,0.071 -0.283836,0.071 -0.23653,0 -0.638631,-0.30749 -0.402101,-0.33114 -1.088038,-0.70959 -0.685937,-0.37844 -1.726669,-0.68593 -1.017079,-0.33115 -2.483565,-0.33115 -2.034158,0 -3.618909,0.73325 -1.561098,0.70959 -2.649136,2.05781 -1.088038,1.34822 -1.65571,3.26411 -0.544019,1.9159 -0.544019,4.30485 0,2.483563 0.567672,4.399456 0.591325,1.915893 1.65571,3.240461 1.064385,1.300915 2.578177,1.986852 1.513792,0.685937 3.358726,0.685937 1.703016,0 2.83836,-0.402101 1.158997,-0.402101 1.89224,-0.875161 0.756896,-0.47306 1.18265,-0.875161 0.425754,-0.402101 0.70959,-0.402101 0.283836,0 0.47306,0.23653 l 0.591325,0.756896 q -0.544019,0.70959 -1.371874,1.324568 -0.827855,0.614978 -1.868587,1.064385 -1.040732,0.449407 -2.270688,0.685937 -1.206303,0.260183 -2.530871,0.260183 -2.247035,0 -4.115622,-0.804202 -1.844934,-0.827855 -3.193155,-2.3653 -1.324568,-1.561098 -2.081464,-3.808133 -0.733243,-2.247035 -0.733243,-5.109046 0,-2.69644 0.70959,-4.91983 0.70959,-2.22338 2.081464,-3.83178 1.371874,-1.60841 3.335073,-2.48357 1.986852,-0.89881 4.541376,-0.89881 2.294341,0 4.068316,0.73324 1.773975,0.73325 3.098543,1.98685 z"
             style="font-weight:300;font-family:Lato;-inkscape-font-specification:'Lato Light'"
             id="path2266" />
          <path
             d="m 89.095228,-123.78629 v 20.98021 h 1.088038 q 0.331142,0 0.614978,-0.0946 0.307489,-0.0946 0.662284,-0.44941 l 9.437542,-8.96449 q 0.23653,-0.28383 0.52037,-0.42575 0.28384,-0.16557 0.70959,-0.16557 h 1.98685 l -10.383664,9.8633 q -0.425754,0.49671 -0.922467,0.78055 0.378448,0.18922 0.638631,0.4494 0.283836,0.23653 0.544019,0.56768 l 10.904031,11.873802 h -1.9632 q -0.33114,0 -0.61498,-0.09461 -0.26018,-0.118265 -0.49671,-0.449407 l -9.886952,-10.596545 q -0.189224,-0.21288 -0.378448,-0.3548 -0.165571,-0.14191 -0.354795,-0.21287 -0.189224,-0.0946 -0.449407,-0.11827 -0.23653,-0.0473 -0.591325,-0.0473 h -1.064385 v 11.873804 H 86.82454 v -34.415114 z"
             style="font-weight:300;font-family:Lato;-inkscape-font-specification:'Lato Light'"
             id="path2268" />
          <path
             d="m 122.28039,-109.99659 q -0.18923,0.33114 -0.54402,0.33114 -0.26019,0 -0.66229,-0.28384 -0.4021,-0.30749 -1.08804,-0.66228 -0.66228,-0.37845 -1.65571,-0.66229 -0.99342,-0.30748 -2.4126,-0.30748 -1.27726,0 -2.34165,0.37844 -1.04073,0.3548 -1.79763,0.96978 -0.73324,0.61497 -1.13534,1.44283 -0.4021,0.8042 -0.4021,1.70302 0,1.11169 0.56767,1.84493 0.56767,0.73324 1.46649,1.25361 0.92246,0.52036 2.10511,0.89881 1.18265,0.37845 2.38896,0.7569 1.22995,0.37845 2.4126,0.85151 1.18265,0.4494 2.08147,1.13534 0.92246,0.685937 1.49014,1.679363 0.56767,0.993426 0.56767,2.412606 0,1.537445 -0.54402,2.862013 -0.54402,1.324568 -1.60841,2.294341 -1.04073,0.969773 -2.57817,1.537445 -1.53745,0.567672 -3.5243,0.567672 -2.48356,0 -4.28119,-0.780549 -1.79763,-0.804202 -3.21681,-2.081464 l 0.52037,-0.804202 q 0.11826,-0.189224 0.26018,-0.283836 0.16557,-0.09461 0.42575,-0.09461 0.30749,0 0.73325,0.378448 0.4494,0.378448 1.18265,0.827855 0.73324,0.425754 1.79762,0.804202 1.08804,0.378448 2.67279,0.378448 1.49014,0 2.62549,-0.402101 1.13534,-0.425754 1.89224,-1.135344 0.75689,-0.70959 1.13534,-1.65571 0.4021,-0.969773 0.4021,-2.034158 0,-1.18265 -0.56767,-1.963199 -0.56767,-0.780549 -1.49014,-1.324568 -0.92247,-0.544019 -2.10512,-0.922472 -1.15899,-0.37844 -2.38895,-0.75689 -1.22996,-0.37845 -2.41261,-0.82786 -1.15899,-0.4494 -2.08146,-1.13534 -0.92247,-0.68594 -1.49014,-1.65571 -0.56767,-0.99343 -0.56767,-2.45991 0,-1.25361 0.54402,-2.41261 0.54402,-1.159 1.53744,-2.03416 1.01708,-0.87516 2.45991,-1.39552 1.44284,-0.52037 3.24047,-0.52037 2.15242,0 3.80813,0.61498 1.67936,0.61498 3.05124,1.89224 z"
             style="font-weight:300;font-family:Lato;-inkscape-font-specification:'Lato Light'"
             id="path2270" />
          <path
             d="m 135.88082,-88.99273 q -2.38895,0 -3.73717,-1.324568 -1.32457,-1.324568 -1.32457,-4.091969 v -16.084043 h -3.38238 q -0.26018,0 -0.42575,-0.14191 -0.16557,-0.14192 -0.16557,-0.40211 v -0.87516 l 4.02101,-0.28383 0.56767,-8.42047 q 0.0473,-0.21288 0.18922,-0.37845 0.14192,-0.16557 0.4021,-0.16557 h 1.06439 v 8.98814 h 7.42704 v 1.67936 h -7.42704 v 15.965778 q 0,0.969773 0.23653,1.679363 0.26018,0.685937 0.68593,1.135344 0.44941,0.449407 1.04074,0.662284 0.59132,0.212877 1.27726,0.212877 0.85151,0 1.46648,-0.23653 0.61498,-0.260183 1.06439,-0.544019 0.44941,-0.307489 0.73324,-0.544019 0.28384,-0.260183 0.44941,-0.260183 0.18922,0 0.37845,0.23653 l 0.61498,0.993426 q -0.89882,0.993426 -2.29435,1.608404 -1.37187,0.591325 -2.86201,0.591325 z"
             style="font-weight:300;font-family:Lato;-inkscape-font-specification:'Lato Light'"
             id="path2272" />
          <path
             d="m 158.82426,-100.74827 q -3.35873,0.11826 -5.79499,0.54402 -2.4126,0.402099 -3.99735,1.111689 -1.5611,0.70959 -2.318,1.703016 -0.75689,0.969773 -0.75689,2.223382 0,1.18265 0.37844,2.057811 0.4021,0.851508 1.04074,1.41918 0.66228,0.544019 1.51379,0.804202 0.85151,0.260183 1.77397,0.260183 1.37188,0 2.50722,-0.283836 1.159,-0.307489 2.12877,-0.827855 0.99343,-0.544019 1.84493,-1.277262 0.85151,-0.733243 1.67937,-1.584751 z m -13.83701,-8.82257 q 1.84494,-1.84493 3.87909,-2.79105 2.03416,-0.94612 4.61234,-0.94612 1.89224,0 3.31142,0.61497 1.41918,0.59133 2.34165,1.72667 0.94612,1.11169 1.41918,2.7201 0.47306,1.58475 0.47306,3.54795 v 15.327142 h -0.89882 q -0.70959,0 -0.87516,-0.662284 l -0.33114,-3.027584 q -0.96977,0.94612 -1.93955,1.703016 -0.94612,0.756896 -1.98685,1.277262 -1.04073,0.520366 -2.24703,0.804202 -1.20631,0.283836 -2.64914,0.283836 -1.2063,0 -2.34165,-0.354795 -1.13534,-0.354795 -2.03415,-1.088038 -0.87517,-0.733243 -1.41918,-1.868587 -0.52037,-1.158997 -0.52037,-2.767401 0,-1.490139 0.85151,-2.767401 0.85151,-1.277262 2.67279,-2.223378 1.82128,-0.94612 4.65964,-1.5138 2.86201,-0.56767 6.85937,-0.66228 v -2.45991 q 0,-3.26412 -1.41918,-5.01444 -1.39553,-1.77397 -4.16293,-1.77397 -1.70302,0 -2.90932,0.47306 -1.18265,0.47306 -2.0105,1.04073 -0.82786,0.56767 -1.34823,1.04073 -0.52036,0.47306 -0.87516,0.47306 -0.26018,0 -0.42575,-0.11826 -0.16557,-0.11827 -0.28384,-0.30749 z"
             style="font-weight:300;font-family:Lato;-inkscape-font-specification:'Lato Light'"
             id="path2274" />
          <path
             d="m 170.69803,-107.22919 q 0.54402,-1.44284 1.22996,-2.55453 0.70959,-1.13534 1.6084,-1.91589 0.92247,-0.78055 2.03416,-1.18265 1.13534,-0.42575 2.50722,-0.42575 0.73324,0 1.44283,0.14191 0.70959,0.11827 1.25361,0.44941 l -0.18922,1.5611 q -0.11827,0.37845 -0.44941,0.37845 -0.28384,0 -0.87516,-0.16557 -0.56767,-0.16557 -1.51379,-0.16557 -1.37188,0 -2.43626,0.42575 -1.04073,0.4021 -1.89224,1.22996 -0.82786,0.82785 -1.46649,2.05781 -0.61498,1.2063 -1.13534,2.79105 v 15.232532 h -2.27069 v -23.534732 h 1.2063 q 0.4021,0 0.56767,0.16557 0.16558,0.16557 0.21288,0.56767 z"
             style="font-weight:300;font-family:Lato;-inkscape-font-specification:'Lato Light'"
             id="path2276" />
          <path
             d="m 191.70191,-88.99273 q -2.38895,0 -3.73717,-1.324568 -1.32457,-1.324568 -1.32457,-4.091969 v -16.084043 h -3.38238 q -0.26018,0 -0.42575,-0.14191 -0.16557,-0.14192 -0.16557,-0.40211 v -0.87516 l 4.02101,-0.28383 0.56767,-8.42047 q 0.0473,-0.21288 0.18922,-0.37845 0.14192,-0.16557 0.4021,-0.16557 h 1.06439 v 8.98814 h 7.42704 v 1.67936 h -7.42704 v 15.965778 q 0,0.969773 0.23653,1.679363 0.26018,0.685937 0.68593,1.135344 0.44941,0.449407 1.04074,0.662284 0.59132,0.212877 1.27726,0.212877 0.85151,0 1.46648,-0.23653 0.61498,-0.260183 1.06439,-0.544019 0.44941,-0.307489 0.73324,-0.544019 0.28384,-0.260183 0.44941,-0.260183 0.18922,0 0.37845,0.23653 l 0.61498,0.993426 q -0.89882,0.993426 -2.29435,1.608404 -1.37187,0.591325 -2.86201,0.591325 z"
             style="font-weight:300;font-family:Lato;-inkscape-font-specification:'Lato Light'"
             id="path2278" />
          <path
             d="m 200.85565,-104.36718 h 10.99864 v 1.91589 h -10.99864 z"
             style="font-weight:300;font-family:Lato;-inkscape-font-specification:'Lato Light'"
             id="path2280" />
          <path
             d="m 221.12632,-108.79029 q 1.63205,-2.03416 3.76082,-3.26411 2.15243,-1.22996 4.77791,-1.22996 1.93954,0 3.40603,0.61498 1.49014,0.61498 2.45991,1.77397 0.96978,1.159 1.46649,2.79106 0.49671,1.63205 0.49671,3.68986 v 15.043312 h -2.27069 v -15.043312 q 0,-3.31142 -1.51379,-5.18 -1.51379,-1.89224 -4.61233,-1.89224 -2.29434,0 -4.30485,1.18265 -1.98685,1.15899 -3.54795,3.24046 v 17.692442 h -2.27069 v -23.534732 h 1.25361 q 0.59133,0 0.68594,0.59132 z"
             style="font-weight:300;font-family:Lato;-inkscape-font-specification:'Lato Light'"
             id="path2282" />
          <path
             d="m 247.49938,-112.90591 v 23.534732 h -2.24704 v -23.534732 z m 0.96977,-8.11298 q 0,0.42575 -0.18923,0.8042 -0.16557,0.3548 -0.4494,0.63863 -0.28384,0.28384 -0.66229,0.44941 -0.37844,0.16557 -0.8042,0.16557 -0.42575,0 -0.8042,-0.16557 -0.37845,-0.16557 -0.66228,-0.44941 -0.28384,-0.28383 -0.44941,-0.63863 -0.16557,-0.37845 -0.16557,-0.8042 0,-0.42576 0.16557,-0.8042 0.16557,-0.4021 0.44941,-0.68594 0.28383,-0.28384 0.66228,-0.44941 0.37845,-0.16557 0.8042,-0.16557 0.42576,0 0.8042,0.16557 0.37845,0.16557 0.66229,0.44941 0.28383,0.28384 0.4494,0.68594 0.18923,0.37844 0.18923,0.8042 z"
             style="font-weight:300;font-family:Lato;-inkscape-font-specification:'Lato Light'"
             id="path2284" />
          <path
             d="M 272.78442,-89.371178 H 270.632 q -0.33114,0 -0.52037,-0.189224 -0.18922,-0.212877 -0.30749,-0.402101 l -7.1432,-10.430977 q -0.0946,0.425758 -0.3548,0.827859 l -6.81206,9.603118 q -0.16557,0.212877 -0.3548,0.402101 -0.16557,0.189224 -0.4494,0.189224 h -2.03416 l 8.56238,-12.039372 -8.23124,-11.49536 h 2.15242 q 0.33115,0 0.49672,0.14192 0.16557,0.14191 0.28383,0.33114 l 6.90668,9.95791 q 0.0473,-0.18922 0.14192,-0.4021 0.11826,-0.21288 0.23653,-0.42575 l 6.45727,-9.10641 q 0.14191,-0.21288 0.30748,-0.35479 0.16558,-0.14192 0.42576,-0.14192 h 2.05781 l -8.20759,11.35344 z"
             style="font-weight:300;font-family:Lato;-inkscape-font-specification:'Lato Light'"
             id="path2286" />
          <path
             d="m 277.16022,-91.192459 q 0,-0.449407 0.16557,-0.851508 0.16557,-0.402101 0.44941,-0.685937 0.30749,-0.307489 0.68594,-0.47306 0.4021,-0.189224 0.87516,-0.189224 0.4494,0 0.8515,0.189224 0.40211,0.165571 0.68594,0.47306 0.30749,0.283836 0.47306,0.685937 0.18923,0.402101 0.18923,0.851508 0,0.47306 -0.18923,0.875161 -0.16557,0.378448 -0.47306,0.685937 -0.28383,0.283836 -0.68594,0.449407 -0.4021,0.165571 -0.8515,0.165571 -0.92247,0 -1.5611,-0.614978 -0.61498,-0.638631 -0.61498,-1.561098 z"
             style="font-weight:300;font-family:Lato;-inkscape-font-specification:'Lato Light'"
             id="path2288" />
          <path
             d="m 293.22059,-110.65888 q 0.73324,-0.73324 1.53744,-1.34822 0.82786,-0.63863 1.72667,-1.06438 0.92247,-0.44941 1.9632,-0.68594 1.04073,-0.26018 2.27069,-0.26018 1.98685,0 3.52429,0.68593 1.53745,0.66229 2.55453,1.89224 1.04073,1.20631 1.5611,2.90932 0.54401,1.67937 0.54401,3.71352 v 15.445412 h -5.84229 v -15.445412 q 0,-2.22338 -1.01708,-3.42968 -1.01707,-1.22996 -3.09854,-1.22996 -1.51379,0 -2.83836,0.68594 -1.32457,0.68594 -2.50722,1.86859 v 17.550522 h -5.84229 v -24.267982 h 3.57161 q 1.13534,0 1.49013,1.06439 z"
             style="font-family:Lato;-inkscape-font-specification:'Lato Bold'"
             id="path2290" />
          <path
             d="m 335.77233,-113.63916 -9.62677,24.267982 h -5.29827 l -9.62677,-24.267982 h 4.82521 q 0.66229,0 1.08804,0.30749 0.44941,0.30749 0.59132,0.78055 l 4.6833,12.961846 q 0.37845,1.135344 0.66228,2.223382 0.28384,1.088038 0.49672,2.176076 0.23653,-1.088038 0.52036,-2.176076 0.28384,-1.088038 0.68594,-2.223382 l 4.7779,-12.961846 q 0.16558,-0.47306 0.59133,-0.78055 0.42575,-0.30749 1.01708,-0.30749 z"
             style="font-family:Lato;-inkscape-font-specification:'Lato Bold'"
             id="path2292" />
          <path
             d="m 344.92602,-113.63916 v 24.267982 h -5.86595 v -24.267982 z m 0.8042,-7.07224 q 0,0.75689 -0.30749,1.41918 -0.30749,0.66228 -0.82786,1.15899 -0.49671,0.49672 -1.18265,0.80421 -0.68593,0.28383 -1.46648,0.28383 -0.7569,0 -1.44284,-0.28383 -0.66228,-0.30749 -1.15899,-0.80421 -0.49672,-0.49671 -0.8042,-1.15899 -0.28384,-0.66229 -0.28384,-1.41918 0,-0.78055 0.28384,-1.46649 0.30748,-0.68594 0.8042,-1.18265 0.49671,-0.49671 1.15899,-0.78055 0.68594,-0.30749 1.44284,-0.30749 0.78055,0 1.46648,0.30749 0.68594,0.28384 1.18265,0.78055 0.52037,0.49671 0.82786,1.18265 0.30749,0.68594 0.30749,1.46649 z"
             style="font-family:Lato;-inkscape-font-specification:'Lato Bold'"
             id="path2294" />
          <path
             d="m 350.88656,-89.371178 v -24.267982 h 3.57161 q 1.13534,0 1.49014,1.06439 l 0.37844,1.79763 q 0.63864,-0.70959 1.32457,-1.30092 0.70959,-0.59132 1.49014,-1.01708 0.8042,-0.42575 1.70302,-0.66228 0.92246,-0.26018 2.0105,-0.26018 2.29434,0 3.76083,1.25361 1.49014,1.22995 2.22338,3.28776 0.56767,-1.2063 1.41918,-2.05781 0.85151,-0.87516 1.86859,-1.41918 1.01708,-0.54402 2.15242,-0.8042 1.159,-0.26018 2.318,-0.26018 2.0105,0 3.5716,0.61497 1.5611,0.61498 2.62548,1.79763 1.06439,1.18265 1.60841,2.88567 0.56767,1.70301 0.56767,3.90274 v 15.445412 h -5.84229 v -15.445412 q 0,-2.31799 -1.01708,-3.47699 -1.01708,-1.18265 -2.98028,-1.18265 -0.89881,0 -1.67936,0.30749 -0.7569,0.30749 -1.34822,0.89882 -0.56768,0.56767 -0.89882,1.44283 -0.33114,0.87516 -0.33114,2.0105 v 15.445412 h -5.86594 v -15.445412 q 0,-2.43626 -0.99343,-3.54795 -0.96977,-1.11169 -2.86201,-1.11169 -1.27727,0 -2.38896,0.63863 -1.08803,0.61498 -2.03415,1.70302 v 17.763402 z"
             style="font-family:Lato;-inkscape-font-specification:'Lato Bold'"
             id="path2296" />
        </g>
      </g>
      <g
         id="g2301"
         transform="translate(6.7950945,48.768295)">
        <path
           fill="#7ebae4"
           d="m -36.254318,-89.55896 -12.061602,21.02585 -2.815852,-4.804756 3.250288,-5.631303 -6.455455,-0.01677 -1.375982,-2.40098 1.40513,-2.455691 9.189052,0.0292 3.302196,-5.73073 z m 0.925574,16.808062 24.121211,0.0012 -2.726012,4.857064 -6.470627,-0.01797 3.213152,5.636095 -1.377581,2.399783 -2.81505,0.0032 -4.569969,-8.024697 -6.581633,-0.01358 z m 14.039327,-9.213408 -12.059606,-21.027044 5.54226,-0.0523 3.219541,5.64927 3.242303,-5.61892 2.753959,6.6e-4 1.410325,2.45289 -4.619884,7.99555 3.279436,5.7443 z"
           clip-rule="evenodd"
           fill-rule="evenodd"
           id="path830"
           style="fill:url(#linearGradient1784);fill-opacity:1;stroke-width:0.556933" />
        <path
           fill="#5277c3"
           d="m -40.607068,-80.897381 12.059606,21.027048 -5.54226,0.05231 -3.219542,-5.649272 -3.242302,5.618926 -2.75396,-7.95e-4 -1.410321,-2.452889 4.619881,-7.995549 -3.279437,-5.744305 z m 14.007383,-9.266509 -24.121209,-0.001 2.726409,-4.85667 6.470229,0.0179 -3.213153,-5.63609 1.377579,-2.39979 2.815452,-0.004 4.569569,8.0247 6.582033,0.0136 2.793491,4.84109 z m 0.941147,16.85677 12.061604,-21.02625 2.815853,4.80516 -3.25069,5.6309 6.455855,0.0172 1.375979,2.400982 -1.40513,2.455684 -9.189049,-0.02915 -3.302197,5.730729 z"
           clip-rule="evenodd"
           fill-rule="evenodd"
           id="path832"
           sodipodi:nodetypes="ccccccccccccccccccccccccccccccc"
           style="fill:url(#linearGradient1776);fill-opacity:1;stroke-width:0.556933" />
      </g>
    </g>
  </g>
</svg>
